# xmcd CD database file
#
# Track frame offsets:
#	150
#	22165
#	46485
#	69075
#	85930
#	113342
#	142995
#	162017
#	178385
#	189985
#	210565
#	229532
#	247957
#	266772
#
# Disc length: 3791 seconds
#
# Revision: 4
# Processed by: cddbd v1.5.2PL0 Copyright (c) Steve Scherf et al.
# Submitted via: CDex 1.51
#
DISCID=b40ecd0e
DTITLE=Johnny Winter - Deluxe Edition
DYEAR=2001
DGENRE=Blues
TTITLE0=Mojo Boogie
TTITLE1=Don't Take Advantage Of Me
TTITLE2=Murdering Blues
TTITLE3=Georgianna
TTITLE4=Good Time Woman
TTITLE5=Third Degree
TTITLE6=Broke And Lonely
TTITLE7=Master Mechanic
TTITLE8=Lights Out
TTITLE9=Bad Girl Blues
TTITLE10=Route 90
TTITLE11=Nothing But The Devil
TTITLE12=It's My Life, Baby
TTITLE13=Kiss Tomorrow Goodbye
EXTD=LABEL =Alligator Records and Artist Mgmt., Inc.ID =ALCD5609UPC =014551-5609-20COPYRIGHT =2001***** YEAR: 2001
EXTT0=
EXTT1=
EXTT2=
EXTT3=
EXTT4=
EXTT5=
EXTT6=
EXTT7=
EXTT8=
EXTT9=
EXTT10=
EXTT11=
EXTT12=
EXTT13=
PLAYORDER=
